<svg xmlns="http://www.w3.org/2000/svg" width="180" height="180" viewBox="0 0 180 180">
  <rect width="180" height="180" rx="40" fill="#7c3aed"/>
  <path fill="#ffffff" d="M97.3 168.5c-2.49 3.17-7.58 1.41-7.58-2.62V126.5c0-3.19-2.59-5.78-5.78-5.78H43.08c-3.45 0-5.46-3.9-3.45-6.71l28.05-39.27c4.01-5.61 0-13.42-6.9-13.42H19.13c-3.45 0-5.46-3.9-3.45-6.71L52.3 8.03c.8-1.11 2.09-1.78 3.45-1.78h108.35c3.45 0 5.46 3.9 3.45 6.71l-28.05 39.27c-4.01 5.62 0 13.42 6.9 13.42h42.66c3.54 0 5.52 4.08 3.34 6.86L97.3 168.5z"/>
</svg>
